<svg width="32" height="32" viewBox="0 0 32 32" fill="none" xmlns="http://www.w3.org/2000/svg">
<path d="M9.86751 12.3206C12.148 12.3206 14.0032 10.4654 14.0032 8.18487C14.0032 5.90501 12.1477 4.0498 9.86751 4.0498C7.58797 4.0498 5.7334 5.90469 5.7334 8.18487C5.7334 10.4654 7.58797 12.3206 9.86751 12.3206ZM9.86751 5.00266C11.6224 5.00266 13.0504 6.43003 13.0504 8.18487C13.0504 9.94003 11.6224 11.3677 9.86751 11.3677C8.11363 11.3677 6.68625 9.93971 6.68625 8.18487C6.68625 6.43003 8.11331 5.00266 9.86751 5.00266Z" fill="#9251F7" stroke="#9251F7"/>
<path d="M20.2547 16.1779C20.0041 16.2585 19.8662 16.5269 19.9469 16.7772C20.0272 17.0275 20.2956 17.1663 20.5462 17.085C21.0887 16.9106 21.6553 16.822 22.2309 16.822C25.2609 16.822 27.7263 19.2873 27.7263 22.3181C27.7263 22.5814 27.9397 22.7945 28.2027 22.7945C28.4657 22.7945 28.6791 22.5814 28.6791 22.3181C28.6791 18.7623 25.7866 15.8691 22.2309 15.8691C21.5563 15.8695 20.8915 15.973 20.2547 16.1779Z" fill="#9251F7" stroke="#9251F7"/>
<path d="M22.4158 14.7974C24.5131 14.7974 26.2193 13.0912 26.2193 10.9939C26.2193 8.89701 24.5131 7.19141 22.4158 7.19141C20.3195 7.19141 18.6143 8.89733 18.6143 10.9939C18.6143 13.0912 20.3195 14.7974 22.4158 14.7974ZM22.4158 8.14426C23.9874 8.14426 25.2664 9.42267 25.2664 10.9939C25.2664 12.5658 23.9877 13.8445 22.4158 13.8445C20.8452 13.8445 19.5671 12.5658 19.5671 10.9939C19.5671 9.42267 20.8449 8.14426 22.4158 8.14426Z" fill="#9251F7" stroke="#9251F7"/>
<path d="M28.7815 27.3544C28.7897 27.322 28.7942 27.289 28.7958 27.2557C28.7961 27.2452 28.7958 27.2347 28.7954 27.2242C28.7948 27.1963 28.7916 27.1686 28.7859 27.141C28.784 27.1312 28.7824 27.1213 28.7799 27.1111C28.77 27.0749 28.7573 27.0394 28.7383 27.0054L26.0204 22.0874C25.893 21.8565 25.6031 21.7739 25.3731 21.9009C25.1428 22.0283 25.0593 22.318 25.1867 22.5486L27.5135 26.7595H20.5793C20.3398 24.4069 18.3471 22.5648 15.9322 22.5648C13.5177 22.5648 11.5253 24.4069 11.2858 26.7595H7.10023V20.5822C7.10023 20.3189 6.88679 20.1058 6.6238 20.1058C6.36081 20.1058 6.14737 20.3189 6.14737 20.5822V26.7595H3.91802V14.5554H15.4047V15.6563C13.8703 15.8729 12.6852 17.1907 12.6852 18.7835C12.6852 20.5272 14.1037 21.9457 15.8474 21.9457C17.5915 21.9457 19.0103 20.5272 19.0103 18.7835C19.0103 17.2139 17.8592 15.9113 16.3572 15.6664V14.079C16.3572 13.8157 16.1438 13.6025 15.8808 13.6025H3.44127C3.17828 13.6025 2.96484 13.8157 2.96484 14.079V27.2357C2.96484 27.499 3.17828 27.7121 3.44127 27.7121H28.3196C28.32 27.7121 28.3203 27.7121 28.3209 27.7121C28.3613 27.7121 28.4016 27.7067 28.4413 27.6962C28.4584 27.6917 28.4737 27.6832 28.4899 27.6768C28.5102 27.6689 28.5312 27.6635 28.5512 27.6527C28.5525 27.652 28.5534 27.6511 28.5544 27.6505C28.5594 27.6476 28.5639 27.6435 28.5687 27.6406C28.596 27.6238 28.6211 27.6047 28.6439 27.5838C28.6522 27.5761 28.6592 27.5679 28.6668 27.5599C28.6862 27.5393 28.7033 27.5174 28.7186 27.4939C28.7221 27.4882 28.7275 27.484 28.731 27.4783C28.7329 27.4751 28.7335 27.4713 28.7354 27.4678C28.7535 27.4351 28.7688 27.4011 28.7789 27.3656C28.7805 27.3614 28.7808 27.3579 28.7815 27.3544ZM18.058 18.7835C18.058 20.0016 17.0668 20.9929 15.8481 20.9929C14.6297 20.9929 13.6387 20.0019 13.6387 18.7835C13.6387 17.5651 14.6297 16.5742 15.8481 16.5742C17.0668 16.5742 18.058 17.5651 18.058 18.7835ZM15.9325 23.5173C17.8211 23.5173 19.3819 24.9336 19.6169 26.7592H12.2488C12.4839 24.9336 14.0443 23.5173 15.9325 23.5173Z" fill="#9251F7" stroke="#9251F7"/>
</svg>
