<svg width="32" height="32" viewBox="0 0 32 32" fill="none" xmlns="http://www.w3.org/2000/svg">
<path d="M29.3224 14.2951C29.3223 13.7236 29.1945 13.1593 28.9484 12.6435C28.7023 12.1277 28.344 11.6734 27.8998 11.3137C27.9387 11.1357 27.9589 10.9542 27.96 10.772C27.9564 10.0804 27.7056 9.41294 27.253 8.89004C26.8004 8.36714 26.1758 8.02326 25.4919 7.92048C25.5753 7.49849 25.5491 7.06215 25.4159 6.65315C25.2845 6.2677 25.0679 5.91682 24.7822 5.62662C24.3336 5.09923 23.727 4.73039 23.0523 4.57474C22.9932 4.54948 22.9296 4.53654 22.8654 4.53672H22.7703C22.5795 4.5265 22.3882 4.53819 22.2 4.57157C22.0662 3.86921 21.6907 3.23588 21.1386 2.78147C20.8068 2.50757 20.4204 2.30767 20.0052 2.19511C19.5899 2.08256 19.1554 2.05995 18.7307 2.1288C18.0071 2.25533 17.3517 2.63405 16.8808 3.19779C16.4099 3.76153 16.1538 4.47385 16.158 5.2084V25.9165C16.1423 26.4322 16.2305 26.9458 16.4173 27.4267C16.6042 27.9076 16.8859 28.346 17.2456 28.7158C17.6054 29.0856 18.0358 29.3793 18.5114 29.5793C18.987 29.7793 19.498 29.8816 20.0139 29.8801C20.7025 29.8822 21.3792 29.6999 21.9736 29.3523C22.568 29.0046 23.0586 28.5042 23.3945 27.9031C23.5406 27.9351 23.6888 27.9563 23.838 27.9664C24.7552 28.0264 25.6586 27.7196 26.3496 27.1136C27.0406 26.5075 27.4626 25.6519 27.5228 24.7347C27.5478 24.3459 27.505 23.9556 27.3961 23.5815C27.9083 23.2199 28.3392 22.7551 28.6607 22.2168C28.9823 21.6785 29.1874 21.0788 29.263 20.4564C29.3385 19.834 29.2827 19.2026 29.0992 18.6031C28.9157 18.0035 28.6086 17.4491 28.1976 16.9755C28.911 16.2651 29.3152 15.3019 29.3224 14.2951ZM28.3529 19.8967C28.3539 20.4337 28.2326 20.9638 27.9982 21.4469C27.7638 21.93 27.4224 22.3533 27 22.6848C26.705 22.17 26.2798 21.7418 25.7671 21.4432C25.2544 21.1446 24.6722 20.986 24.0788 20.9835C23.9528 20.9835 23.8319 21.0335 23.7428 21.1226C23.6537 21.2118 23.6036 21.3327 23.6036 21.4587C23.6036 21.5847 23.6537 21.7056 23.7428 21.7947C23.8319 21.8839 23.9528 21.9339 24.0788 21.9339C24.5791 21.9494 25.0636 22.1126 25.4712 22.4029C25.8789 22.6933 26.1915 23.0979 26.3695 23.5656C26.5162 23.9149 26.5812 24.2931 26.5596 24.6714C26.5108 25.3349 26.2031 25.9527 25.7028 26.3913C25.2025 26.83 24.5498 27.0543 23.8856 27.0159C23.6772 26.9997 23.4717 26.9571 23.2741 26.8892C23.1608 26.8519 23.0377 26.8586 22.9291 26.9079C22.8205 26.9572 22.7344 27.0455 22.6879 27.1553C22.4291 27.764 21.9712 28.2667 21.3892 28.581C20.8072 28.8953 20.1357 29.0026 19.4848 28.8852C18.8059 28.7427 18.1976 28.3687 17.7641 27.8271C17.3306 27.2856 17.0989 26.6101 17.1085 25.9165V5.2084C17.1009 4.69906 17.274 4.20349 17.597 3.80966C17.9201 3.41582 18.3723 3.1492 18.8733 3.05711C18.9855 3.04008 19.0988 3.0316 19.2123 3.03177C19.6943 3.03018 20.1616 3.19717 20.5335 3.50385C20.7548 3.68615 20.9367 3.91165 21.068 4.16659C21.1993 4.42153 21.2772 4.70055 21.297 4.98662C20.8889 5.24696 20.5526 5.60557 20.319 6.02958C20.0854 6.45359 19.962 6.92945 19.96 7.41355C19.96 7.53959 20.0101 7.66047 20.0992 7.7496C20.1883 7.83873 20.3092 7.8888 20.4353 7.8888C20.5613 7.8888 20.6822 7.83873 20.7713 7.7496C20.8604 7.66047 20.9105 7.53959 20.9105 7.41355C20.9115 6.91476 21.1041 6.43542 21.4485 6.07457C21.7928 5.71371 22.2626 5.49891 22.7608 5.47454C23.1252 5.50939 23.5466 5.70266 24.0852 6.26662C24.2723 6.4533 24.4152 6.67958 24.5034 6.9288C24.6175 7.29174 24.6052 7.68265 24.4685 8.03771C24.4508 8.0897 24.4422 8.14437 24.4432 8.19929C24.4432 8.19929 24.4432 8.22464 24.4432 8.23414C24.4244 8.30714 24.4232 8.38356 24.4398 8.45709C24.4564 8.53062 24.4902 8.59915 24.5385 8.65703C24.5868 8.71491 24.6481 8.76047 24.7175 8.78996C24.7869 8.81945 24.8623 8.83201 24.9374 8.82662H25.0578C25.3138 8.82579 25.5675 8.87549 25.8042 8.97288C26.041 9.07027 26.2562 9.21343 26.4375 9.39415C26.6188 9.57488 26.7627 9.78961 26.8608 10.026C26.959 10.2625 27.0095 10.516 27.0095 10.772C27.0067 10.9715 26.9725 11.1693 26.9081 11.3581C26.8769 11.456 26.8782 11.5614 26.9119 11.6586C26.9456 11.7557 27.0098 11.8392 27.0951 11.8967C27.4654 12.1429 27.7735 12.4718 27.995 12.8574C28.2165 13.2429 28.3454 13.6747 28.3715 14.1187C28.3976 14.5626 28.3202 15.0065 28.1455 15.4154C27.9707 15.8243 27.7033 16.187 27.3644 16.4749C27.3397 16.4968 27.3174 16.5213 27.2978 16.5478C26.8095 16.9014 26.2216 17.0911 25.6186 17.0896C24.8525 17.0887 24.1181 16.7841 23.5764 16.2423C23.0347 15.7006 22.73 14.9662 22.7291 14.2001C22.7291 14.074 22.6791 13.9532 22.5899 13.864C22.5008 13.7749 22.3799 13.7248 22.2539 13.7248C22.1278 13.7248 22.007 13.7749 21.9178 13.864C21.8287 13.9532 21.7786 14.074 21.7786 14.2001C21.782 15.2164 22.1874 16.19 22.9063 16.9083C23.6252 17.6266 24.5992 18.0312 25.6155 18.0337C26.2599 18.0363 26.8944 17.8749 27.4594 17.5648C28.032 18.207 28.3498 19.0364 28.3529 19.8967Z" fill="#1DCBEE" stroke="#1DCBEE"/>
<path d="M12.3216 2.12001C11.8969 2.05116 11.4624 2.07377 11.0472 2.18632C10.6319 2.29888 10.2455 2.49879 9.91369 2.77268C9.36166 3.22709 8.98614 3.86042 8.8523 4.56278C8.67879 4.53186 8.50252 4.51911 8.32636 4.52476H8.26933C8.2325 4.5204 8.19528 4.5204 8.15844 4.52476C7.61032 4.58496 6.97666 4.8606 6.25745 5.59882C5.97167 5.88895 5.75507 6.23985 5.62379 6.62535C5.49037 7.03432 5.46418 7.4707 5.54775 7.89268C4.86386 7.99546 4.23924 8.33934 3.78665 8.86224C3.33405 9.38514 3.08329 10.0526 3.07963 10.7442C3.07974 10.9263 3.09886 11.1078 3.13666 11.2859C2.71785 11.6235 2.37511 12.0458 2.13091 12.5252C1.88671 13.0045 1.74655 13.53 1.71963 14.0672C1.69271 14.6045 1.77962 15.1414 1.97469 15.6427C2.16975 16.144 2.46855 16.5985 2.85151 16.9762C2.44191 17.4508 2.13628 18.0058 1.95435 18.6057C1.77242 19.2056 1.71821 19.8369 1.79523 20.459C1.87224 21.0811 2.07877 21.6802 2.4015 22.2175C2.72422 22.7549 3.15598 23.2187 3.66894 23.579C3.56005 23.9532 3.51716 24.3434 3.54221 24.7323C3.60242 25.6494 4.02442 26.5051 4.71542 27.1111C5.40641 27.7171 6.30981 28.0239 7.22696 27.964C7.37617 27.9538 7.52443 27.9326 7.67052 27.9006C8.00636 28.5018 8.49695 29.0022 9.09139 29.3498C9.68584 29.6975 10.3625 29.8797 11.0511 29.8776C11.5654 29.877 12.0744 29.7732 12.5479 29.5725C13.0214 29.3717 13.4499 29.078 13.8079 28.7088C14.1659 28.3395 14.4462 27.9022 14.6323 27.4227C14.8184 26.9433 14.9064 26.4313 14.8911 25.9172V5.20912C14.8977 4.47339 14.6432 3.75918 14.1727 3.19353C13.7022 2.62788 13.0462 2.24748 12.3216 2.12001ZM13.9406 25.9172C13.9495 26.6131 13.7155 27.2903 13.2789 27.8321C12.8423 28.374 12.2304 28.7467 11.5485 28.8859C10.8976 29.0027 10.2264 28.8952 9.64453 28.581C9.06268 28.2667 8.60466 27.7644 8.34537 27.156C8.3101 27.0718 8.25129 26.9995 8.176 26.9478C8.10071 26.8961 8.01211 26.8672 7.92082 26.8646C7.87137 26.8642 7.82219 26.8717 7.77508 26.8867C7.57743 26.9547 7.37196 26.9973 7.16359 27.0135C6.49814 27.0569 5.84267 26.8344 5.34124 26.3947C4.83982 25.9551 4.53347 25.3343 4.48953 24.6689C4.46845 24.2917 4.53346 23.9147 4.67963 23.5663C4.87464 23.0937 5.20272 22.688 5.62399 22.3983C6.04527 22.1086 6.54161 21.9476 7.0527 21.9347C7.17874 21.9347 7.29963 21.8846 7.38875 21.7955C7.47788 21.7063 7.52795 21.5855 7.52795 21.4594C7.52795 21.3334 7.47788 21.2125 7.38875 21.1234C7.29963 21.0342 7.17874 20.9842 7.0527 20.9842C6.45205 20.9946 5.86372 21.1562 5.34206 21.4541C4.82041 21.752 4.38227 22.1767 4.06815 22.6887C3.68475 22.3899 3.36727 22.015 3.13566 21.5877C2.90404 21.1603 2.76328 20.6896 2.72223 20.2053C2.68117 19.7209 2.7407 19.2333 2.89707 18.773C3.05345 18.3128 3.30329 17.8898 3.63092 17.5307C4.21437 17.8606 4.87406 18.0318 5.5443 18.0275C6.21453 18.0231 6.87193 17.8432 7.45102 17.5058C8.03012 17.1683 8.51071 16.685 8.84495 16.1041C9.17919 15.5231 9.35541 14.8647 9.35607 14.1945C9.35607 14.0684 9.306 13.9475 9.21687 13.8584C9.12774 13.7693 9.00686 13.7192 8.88082 13.7192C8.75478 13.7192 8.63389 13.7693 8.54477 13.8584C8.45564 13.9475 8.40557 14.0684 8.40557 14.1945C8.40613 14.7266 8.25974 15.2485 7.98253 15.7028C7.70532 16.157 7.30807 16.5259 6.83456 16.7687C6.36106 17.0115 5.8297 17.1188 5.29907 17.0789C4.76844 17.0389 4.25915 16.8532 3.82735 16.5422C3.78585 16.5128 3.73984 16.4903 3.69112 16.4757C3.35342 16.1877 3.08711 15.8253 2.91308 15.4171C2.73906 15.0088 2.66207 14.5657 2.68817 14.1227C2.71426 13.6797 2.84274 13.2487 3.06349 12.8637C3.28424 12.4787 3.59126 12.1501 3.96042 11.9038C4.04564 11.8463 4.10992 11.7627 4.14363 11.6656C4.17733 11.5685 4.17864 11.4631 4.14735 11.3652C4.0802 11.1746 4.04383 10.9746 4.03963 10.7727C4.04046 10.5164 4.09191 10.2628 4.19104 10.0265C4.29016 9.79018 4.435 9.57577 4.61724 9.39559C4.79948 9.21541 5.01553 9.07301 5.25297 8.97658C5.4904 8.88015 5.74456 8.83158 6.00082 8.83367H6.09587C6.17101 8.83984 6.24653 8.82779 6.31602 8.79856C6.38551 8.76933 6.44694 8.72377 6.49508 8.66575C6.54308 8.60802 6.57672 8.53973 6.59325 8.46648C6.60977 8.39324 6.6087 8.31712 6.59013 8.24436C6.59013 8.24436 6.59013 8.21902 6.59013 8.20951C6.59108 8.15459 6.5825 8.09992 6.56478 8.04793C6.42786 7.69292 6.41557 7.30193 6.52993 6.93902C6.62315 6.68425 6.77385 6.4544 6.97032 6.26733C7.52161 5.6907 7.9525 5.5006 8.3232 5.47526C8.83086 5.48683 9.31387 5.69646 9.66907 6.05935C10.0243 6.42224 10.2235 6.90964 10.2242 7.41743C10.2242 7.54348 10.2743 7.66436 10.3634 7.75348C10.4525 7.84261 10.5734 7.89268 10.6994 7.89268C10.8255 7.89268 10.9464 7.84261 11.0355 7.75348C11.1246 7.66436 11.1747 7.54348 11.1747 7.41743C11.1743 6.91847 11.0448 6.42809 10.7989 5.99395C10.5529 5.55981 10.1989 5.19667 9.77112 4.93981C9.79637 4.66244 9.87628 4.39282 10.0062 4.14648C10.1362 3.90015 10.3137 3.68198 10.5283 3.50456C10.7575 3.31651 11.0241 3.17941 11.3103 3.10239C11.5966 3.02536 11.896 3.01017 12.1885 3.05783C12.6872 3.15256 13.1364 3.42033 13.457 3.8139C13.7775 4.20748 13.9488 4.70159 13.9406 5.20912V25.9172Z" fill="#1DCBEE" stroke="#1DCBEE"/>
</svg>
