<svg width="32" height="32" viewBox="0 0 32 32" fill="none" xmlns="http://www.w3.org/2000/svg">
<path d="M22.7111 5.74609C20.509 5.74609 18.4862 6.75764 17.1561 8.52283C16.9783 8.71052 16.9815 9.00674 17.1653 9.19028L20.5498 12.5748L15.7809 17.3433C15.6912 17.433 15.6408 17.555 15.6408 17.682C15.6408 17.8091 15.6912 17.9307 15.7809 18.0207L18.6343 20.874L13.8657 25.6426C13.7754 25.7326 13.725 25.8552 13.7256 25.9825C13.7262 26.1099 13.7773 26.2322 13.868 26.3215C15.1843 27.621 16.0819 28.569 16.0909 28.5786C16.1793 28.6721 16.3019 28.7261 16.4305 28.7283C16.4334 28.7283 16.4359 28.7283 16.4385 28.7283C16.5646 28.7283 16.6852 28.6788 16.7752 28.5901C16.8592 28.5071 25.1939 20.2704 27.8698 17.4464C29.0406 16.2108 29.6857 14.5417 29.6857 12.7468C29.6857 8.88672 26.5569 5.74609 22.7111 5.74609ZM27.1749 16.7882C24.8217 19.2716 18.0568 25.9755 16.4481 27.5677C16.1202 27.2278 15.5719 26.6653 14.8833 25.9797L19.6506 21.2124C19.8377 21.0253 19.8377 20.7224 19.6506 20.5354L16.7973 17.682L21.5658 12.9135C21.6552 12.8234 21.7056 12.7018 21.7056 12.5748C21.7056 12.4477 21.6552 12.3261 21.5655 12.2361L18.1465 8.81746C19.2906 7.46915 20.9332 6.7037 22.7111 6.7037C26.0289 6.7037 28.7281 9.41468 28.7281 12.7468C28.7281 14.2959 28.1762 15.7311 27.1749 16.7882Z" fill="#9251F7" stroke="#9251F7"/>
<path d="M16.2793 20.8736C16.2793 20.7469 16.2288 20.625 16.1391 20.5349L13.2858 17.6816L18.0543 12.913C18.2395 12.7279 18.2417 12.4282 18.0588 12.2405C18.0026 12.183 17.6439 11.8217 17.2231 11.3978C16.6285 10.799 15.8135 9.97893 15.7366 9.89753C15.5678 9.71942 15.4031 9.54418 15.2419 9.37213C13.4971 7.51182 11.9908 5.90527 9.20894 5.90527C5.36319 5.90527 2.23438 8.96578 2.23438 12.7279C2.23438 14.4733 2.87023 16.0904 4.02446 17.281C5.06474 18.3538 6.63138 19.7922 8.29028 21.3147C9.52878 22.4517 10.8094 23.627 11.9576 24.7299C12.0505 24.8189 12.1699 24.8633 12.2892 24.8633C12.4118 24.8633 12.5344 24.8167 12.6279 24.7232L16.1391 21.2123C16.2288 21.1223 16.2793 21.0003 16.2793 20.8736ZM12.2819 23.7148C11.2167 22.7007 10.0599 21.6391 8.93762 20.609C7.28958 19.0963 5.73251 17.6672 4.71202 16.6142C3.73175 15.6033 3.19198 14.2234 3.19198 12.7279C3.19198 9.49406 5.89115 6.86288 9.20894 6.86288C11.5761 6.86288 12.8204 8.19012 14.5428 10.0268C14.7056 10.2001 14.8713 10.377 15.0414 10.5564C15.1199 10.639 15.7401 11.264 16.5432 12.0726C16.7277 12.2583 16.9001 12.4317 17.0402 12.5728L12.2698 17.3429C12.1801 17.4326 12.1296 17.5546 12.1296 17.6816C12.1296 17.8086 12.1801 17.9303 12.2698 18.0203L15.1231 20.8736L12.2819 23.7148Z" fill="#9251F7" stroke="#9251F7"/>
<path d="M9.25649 8.4248C6.88035 8.4248 4.94727 10.3579 4.94727 12.734C4.94727 12.9986 5.16145 13.2128 5.42607 13.2128C5.69069 13.2128 5.90487 12.9986 5.90487 12.734C5.90487 10.8859 7.40831 9.38241 9.25649 9.38241C9.52111 9.38241 9.7353 9.16823 9.7353 8.90361C9.7353 8.63899 9.52111 8.4248 9.25649 8.4248Z" fill="#9251F7" stroke="#9251F7"/>
</svg>
