<svg width="32" height="32" viewBox="0 0 32 32" fill="none" xmlns="http://www.w3.org/2000/svg">
<path d="M26.9309 11.3393C26.7056 8.75084 25.5667 6.32697 23.7179 4.50137C21.869 2.67576 19.431 1.56754 16.8398 1.37497C15.3459 1.26485 13.8454 1.46624 12.4334 1.96636C11.0214 2.46649 9.72863 3.25445 8.63707 4.28031C7.54626 5.3016 6.67624 6.53551 6.08065 7.90597C5.48507 9.27642 5.17654 10.7544 5.1741 12.2486C5.17392 12.6551 5.19613 13.0612 5.24063 13.4653C4.45172 14.3334 2.14519 17.0835 3.33964 18.4015C3.95202 18.921 4.64283 19.3402 5.38637 19.6435V21.2276C5.38637 24.0791 7.35073 27.1175 10.9721 27.1175L12.9967 27.1841V29.9405C12.9967 30.0666 13.0467 30.1874 13.1359 30.2766C13.225 30.3657 13.3459 30.4158 13.4719 30.4158C13.598 30.4158 13.7188 30.3657 13.808 30.2766C13.8971 30.1874 13.9472 30.0666 13.9472 29.9405V26.7057C13.9472 26.5823 13.8993 26.4638 13.8136 26.3751C13.7279 26.2864 13.611 26.2345 13.4878 26.2304L10.988 26.148C7.92103 26.148 6.33687 23.6641 6.33687 21.2086V19.3076C6.33693 19.1914 6.29441 19.0792 6.21735 18.9922C6.14029 18.9052 6.03402 18.8495 5.91865 18.8356C5.62717 18.7342 4.42637 18.1797 4.04618 17.7615C3.72934 17.4098 4.25528 15.889 6.0834 13.9595C6.13226 13.9081 6.169 13.8465 6.19093 13.779C6.21286 13.7116 6.21942 13.6401 6.21014 13.5698C6.153 13.1339 6.12442 12.6946 6.12459 12.255C6.12591 10.8882 6.40779 9.53617 6.95277 8.28272C7.49775 7.02926 8.29424 5.90101 9.29291 4.96784C10.2887 4.03312 11.4678 3.31535 12.7554 2.85996C14.0431 2.40457 15.4112 2.22148 16.7733 2.32229C19.1361 2.49809 21.3594 3.50822 23.046 5.17221C24.7327 6.83621 25.7727 9.04567 25.9804 11.4059C26.1172 12.9518 25.8882 14.5082 25.3119 15.9491C24.7356 17.3901 23.8283 18.6752 22.6632 19.7005C22.6112 19.7446 22.5692 19.7994 22.5402 19.8612C22.5113 19.923 22.4959 19.9903 22.4953 20.0585V29.6237C22.4953 29.7497 22.5454 29.8706 22.6345 29.9597C22.7236 30.0489 22.8445 30.0989 22.9705 30.0989C23.0966 30.0989 23.2175 30.0489 23.3066 29.9597C23.3957 29.8706 23.4458 29.7497 23.4458 29.6237V20.2771C24.6742 19.1552 25.6276 17.7652 26.232 16.2152C26.8365 14.6652 27.0756 12.9967 26.9309 11.3393Z" fill="#1DCBEE" stroke="#1DCBEE"/>
<path d="M16.1144 6.01954C14.3903 6.02121 12.7371 6.70598 11.5168 7.92391C10.2965 9.14183 9.60854 10.7937 9.60352 12.5178C9.60352 12.6438 9.65359 12.7647 9.74271 12.8538C9.83184 12.9429 9.95272 12.993 10.0788 12.993C10.2048 12.993 10.3257 12.9429 10.4148 12.8538C10.5039 12.7647 10.554 12.6438 10.554 12.5178C10.554 11.0431 11.1398 9.62874 12.1826 8.58597C13.2254 7.54319 14.6397 6.95737 16.1144 6.95737C17.5891 6.95737 19.0034 7.54319 20.0462 8.58597C21.089 9.62874 21.6748 11.0431 21.6748 12.5178C21.6901 13.3167 21.5275 14.109 21.1987 14.8373C20.8699 15.5656 20.3832 16.2116 19.7738 16.7285C19.2856 17.1268 18.7114 17.4062 18.0967 17.5448C17.482 17.6833 16.8436 17.6772 16.2316 17.5269C13.697 16.9629 13.4974 14.4092 13.4974 13.6393C13.4896 12.8791 13.7808 12.1462 14.3083 11.5986C14.8357 11.051 15.5572 10.7326 16.3172 10.7118H16.3932C16.8167 10.7118 17.2229 10.8801 17.5223 11.1795C17.8218 11.479 17.9901 11.8851 17.9901 12.3087C17.9901 12.7322 17.8218 13.1383 17.5223 13.4378C17.2229 13.7372 16.8167 13.9055 16.3932 13.9055C16.2672 13.9055 16.1463 13.9556 16.0572 14.0447C15.968 14.1338 15.918 14.2547 15.918 14.3807C15.918 14.5068 15.968 14.6277 16.0572 14.7168C16.1463 14.8059 16.2672 14.856 16.3932 14.856C17.0688 14.8619 17.7191 14.5991 18.2009 14.1256C18.6828 13.652 18.9568 13.0064 18.9627 12.3308C18.9686 11.6552 18.7059 11.005 18.2323 10.5231C17.7588 10.0412 17.1132 9.76721 16.4376 9.76133H16.3584C15.3418 9.77136 14.3705 10.1831 13.6564 10.9067C12.9424 11.6302 12.5435 12.6069 12.5469 13.6235C12.5469 15.5752 13.4594 17.8659 16.032 18.4362C16.4209 18.5238 16.8183 18.5684 17.217 18.5692C18.3701 18.5743 19.4895 18.1802 20.3853 17.454C21.1052 16.8475 21.6814 16.0886 22.0721 15.2322C22.4627 14.3757 22.6582 13.4432 22.6443 12.5019C22.6351 10.7773 21.9426 9.12663 20.7187 7.91158C19.4947 6.69653 17.8391 6.01617 16.1144 6.01954Z" fill="#1DCBEE" stroke="#1DCBEE"/>
</svg>
