<svg width="17" height="18" viewBox="0 0 17 18" fill="none" xmlns="http://www.w3.org/2000/svg">
<path d="M15.1503 8.54644L5.58848 2.70339C5.50795 2.6542 5.41577 2.62734 5.32141 2.62558C5.22706 2.62382 5.13394 2.64723 5.05163 2.6934C4.96932 2.73957 4.9008 2.80683 4.85311 2.88826C4.80542 2.96969 4.78028 3.06236 4.78027 3.15673V14.8428C4.78028 14.9372 4.80542 15.0298 4.85311 15.1113C4.9008 15.1927 4.96932 15.26 5.05163 15.3061C5.13394 15.3523 5.22706 15.3757 5.32141 15.374C5.41577 15.3722 5.50795 15.3453 5.58848 15.2961L15.1496 9.45239C15.2269 9.40477 15.2908 9.33814 15.3351 9.25885C15.3794 9.17956 15.4026 9.09024 15.4026 8.99942C15.4026 8.90859 15.3794 8.81927 15.3351 8.73998C15.2908 8.66069 15.2276 8.59406 15.1503 8.54644Z" fill="#00A2C2" stroke="#00A2C2" stroke-width="0.708333" stroke-linecap="round" stroke-linejoin="round"/>
</svg>
