<svg width="14" height="20" viewBox="0 0 14 20" fill="none" xmlns="http://www.w3.org/2000/svg">
<path d="M2.65517 17H11.8276C13.189 17 14 16.0056 14 14.3387V8.24919C14 7.61845 13.75 7.01354 13.305 6.56753C12.8601 6.12153 12.2565 5.87097 11.6272 5.87097H10.6207V5.62903C10.6207 4.66655 10.2392 3.74349 9.56021 3.06292C8.8812 2.38234 7.96027 2 7 2C6.03973 2 5.1188 2.38234 4.43979 3.06292C3.76077 3.74349 3.37931 4.66655 3.37931 5.62903V5.87097H2.37276C1.74346 5.87097 1.13994 6.12153 0.694965 6.56753C0.249986 7.01354 0 7.61845 0 8.24919V14.3387C0 15.0445 0.27974 15.7214 0.777682 16.2205C1.27562 16.7196 1.95098 17 2.65517 17ZM4.82759 5.62903C4.82759 5.05154 5.05647 4.49771 5.46387 4.08936C5.87128 3.68102 6.42384 3.45161 7 3.45161C7.57616 3.45161 8.12872 3.68102 8.53613 4.08936C8.94353 4.49771 9.17241 5.05154 9.17241 5.62903V5.87097H4.82759V5.62903ZM1.44828 8.24919C1.44777 8.12741 1.4714 8.00673 1.51781 7.89418C1.56422 7.78163 1.63248 7.67944 1.71862 7.59355C1.89247 7.42028 2.12759 7.32288 2.37276 7.32258H11.6272C11.8724 7.32288 12.1075 7.42028 12.2814 7.59355C12.3675 7.67944 12.4358 7.78163 12.4822 7.89418C12.5286 8.00673 12.5522 8.12741 12.5517 8.24919V9.74194H1.44828V8.24919ZM6.27586 11.1936V13.129H7.72414V11.1936H12.5517V14.3387C12.5517 15.5484 12.0448 15.5484 11.8276 15.5484H2.65517C2.33508 15.5484 2.0281 15.4209 1.80177 15.1941C1.57543 14.9672 1.44828 14.6595 1.44828 14.3387V11.1936H6.27586Z" fill="#00A2C2"/>
</svg>
