<svg width="17" height="18" viewBox="0 0 17 18" fill="none" xmlns="http://www.w3.org/2000/svg">
<path d="M14.7379 6.53244L10.6397 5.93684L8.80777 2.22286C8.75774 2.12117 8.67542 2.03885 8.57373 1.98882C8.31871 1.86292 8.00881 1.96783 7.88129 2.22286L6.04932 5.93684L1.95119 6.53244C1.8382 6.54858 1.7349 6.60184 1.65581 6.68254C1.5602 6.78082 1.50751 6.91304 1.50932 7.05014C1.51114 7.18724 1.56731 7.31801 1.66549 7.41372L4.63055 10.3045L3.93004 14.3865C3.91361 14.4815 3.92412 14.5791 3.96037 14.6684C3.99662 14.7577 4.05717 14.8351 4.13514 14.8917C4.21311 14.9483 4.30539 14.982 4.40151 14.9888C4.49763 14.9957 4.59375 14.9755 4.67897 14.9305L8.34453 13.0033L12.0101 14.9305C12.1102 14.9837 12.2264 15.0015 12.3378 14.9821C12.6186 14.9337 12.8074 14.6674 12.759 14.3865L12.0585 10.3045L15.0236 7.41372C15.1043 7.33463 15.1575 7.23133 15.1737 7.11834C15.2173 6.83588 15.0203 6.5744 14.7379 6.53244V6.53244Z" fill="#FADB14"/>
</svg>
