<svg width="13" height="15" viewBox="0 0 13 15" fill="none" xmlns="http://www.w3.org/2000/svg">
<path fill-rule="evenodd" clip-rule="evenodd" d="M6.6725 1.88227C5.36717 1.84061 4.09149 2.2767 3.08481 3.1087C2.07813 3.94071 1.40964 5.11145 1.20475 6.40128C0.999862 7.69111 1.27266 9.01138 1.97197 10.1144L2.09749 10.3124L1.64607 12.4083L3.70971 11.8279L3.91513 11.9409C5.05923 12.5708 6.39384 12.7614 7.66854 12.4772C8.94324 12.193 10.0704 11.4535 10.8386 10.3973C11.6068 9.34114 11.9633 8.04095 11.841 6.74068C11.7188 5.44041 11.1263 4.22943 10.1747 3.33494C9.22312 2.44045 7.97784 1.92392 6.6725 1.88227ZM2.35527 2.226C3.5769 1.21634 5.12497 0.687142 6.70902 0.737689C8.29308 0.788235 9.80426 1.41505 10.959 2.50054C12.1138 3.58603 12.8328 5.05559 12.9812 6.6335C13.1295 8.2114 12.697 9.78921 11.7647 11.0709C10.8325 12.3526 9.46462 13.2501 7.91774 13.595C6.44874 13.9225 4.91419 13.7303 3.57432 13.0555L0.126371 14.0253L0.880606 10.5235C0.124327 9.22784 -0.16235 7.70808 0.0737697 6.22163C0.322405 4.65639 1.13364 3.23566 2.35527 2.226Z" fill="#001E24"/>
<path d="M8.84344 8.05557C8.7144 7.96955 8.58536 7.92654 8.45633 8.09859L7.94018 8.78678C7.81114 8.87281 7.72512 8.91582 7.55307 8.8298C6.90788 8.4857 6.00463 8.09859 5.2304 6.80822C5.18739 6.63617 5.27342 6.55014 5.35944 6.46412L5.74655 5.86195C5.83258 5.77592 5.78956 5.6899 5.74655 5.60387L5.2304 4.35652C5.10137 4.01242 4.97233 4.05543 4.84329 4.05543H4.4992C4.41317 4.05543 4.24112 4.09844 4.06907 4.27049C3.1228 5.21676 3.50991 6.55014 4.19811 7.41039C4.32715 7.58244 5.18739 9.13088 7.03692 9.94812C8.41331 10.5503 8.7144 10.4643 9.10151 10.3782C9.57465 10.3352 10.0478 9.94812 10.2628 9.56101C10.3059 9.43197 10.5209 8.87281 10.3489 8.78678" fill="#001E24"/>
</svg>
