<svg width="96" height="40" viewBox="0 0 96 40" fill="none" xmlns="http://www.w3.org/2000/svg">
<path d="M91.2906 29.694C93.1551 29.694 94.4758 29.3574 95.4598 28.6323V25.3436C94.4499 26.0427 93.2328 26.483 91.5237 26.483C88.6493 26.483 87.4581 24.2559 87.4581 20.7341C87.4581 17.0311 88.9083 15.1407 91.5496 15.1407C93.1033 15.1407 94.6312 15.6845 95.4339 16.2024V12.7842C94.5794 12.3181 93.1033 11.9814 91.0835 11.9814C85.9303 11.9814 83.263 15.6845 83.263 20.8636C83.2889 26.5347 85.9044 29.694 91.2906 29.694ZM66.0943 28.1921V24.9033C64.8513 25.7579 62.7278 26.5089 60.7857 26.5089C57.8336 26.5089 56.7201 25.1105 56.5388 22.262H66.2755V20.1385C66.2755 14.2085 63.6601 11.9814 59.6463 11.9814C54.7261 11.9814 52.3955 15.7363 52.3955 20.8895C52.3955 26.8196 55.3217 29.694 60.449 29.694C63.0127 29.694 64.9031 28.9948 66.0943 28.1921ZM29.1413 12.2922V19.025H23.755V12.2922H19.7153V29.3574H23.755V22.2361H29.1413V29.3574H33.181V12.2922H29.1413ZM51.3856 26.1463H49.5988V12.2922H37.8422V13.7423C37.8422 17.9115 37.5833 23.2978 36.159 26.1463H34.8642V33.2417H38.5932V29.3574H47.6307V33.2417H51.3597V26.1463H51.3856ZM78.9644 29.3574H83.5479L77.074 20.1644L82.771 12.2922H78.7054L73.0084 20.1644V12.2922H68.9687V29.3574H73.0084V20.9672L78.9644 29.3574ZM59.5427 15.1407C61.5367 15.1407 62.1581 16.798 62.1581 18.9473V19.284H56.5388C56.6424 16.565 57.6264 15.1407 59.5427 15.1407ZM45.5591 26.1463H39.8621C40.9756 23.5827 41.2863 18.9215 41.2863 15.9694V15.4514H45.5591V26.1463Z" fill="black"/>
<path d="M16.3489 29.3569H12.2315V8.97715H10.393C7.02654 8.97715 5.26564 10.6604 5.26564 13.1722C5.26564 16.0207 6.48273 17.3414 8.9946 19.0246L11.0662 20.423L5.11027 29.3569H0.682129L6.04251 21.3811C2.96094 19.18 1.22594 17.0307 1.22594 13.4053C1.22594 8.87356 4.38519 5.79199 10.3671 5.79199H16.323L16.3489 29.3569Z" fill="#FC3F1D"/>
</svg>
